<svg viewBox="0 0 80 83" fill="none" xmlns="http://www.w3.org/2000/svg">
    <path fill="#fff" d="M65.66 36.01H14.39a3.27 3.27 0 0 1-3.26-3.27V22.9c0-1.8 1.46-3.28 3.26-3.28h51.27c1.8 0 3.26 1.47 3.26 3.28v9.83c0 1.8-1.46 3.27-3.26 3.27ZM14.39 22.15a.78.78 0 0 0-.76.76v9.83c0 .42.34.76.76.76h51.27c.42 0 .76-.34.76-.76V22.9a.77.77 0 0 0-.76-.76H14.39Z"/>
    <path fill="#fff" d="M58.5 69.67H21.55a6.3 6.3 0 0 1-6.28-6.32v-28.6c0-.69.56-1.25 1.25-1.25s1.25.56 1.25 1.26v28.6c0 2.09 1.7 3.8 3.78 3.8H58.5a3.8 3.8 0 0 0 3.78-3.8v-28.6c0-.7.56-1.26 1.25-1.26s1.25.56 1.25 1.26v28.6a6.3 6.3 0 0 1-6.28 6.3Z"/>
    <path fill="#fff" d="M40.02 69.67c-.69 0-1.25-.57-1.25-1.26V34.76c0-.7.56-1.26 1.25-1.26.7 0 1.25.56 1.25 1.26V68.4c0 .7-.56 1.26-1.25 1.26ZM24.42 22.14a8.15 8.15 0 0 1-3.25-11A8.06 8.06 0 0 1 32.1 7.87c5.96 3.25 9.18 12.3 9.31 12.7l-2.36.82c-.03-.08-3.03-8.53-8.14-11.3a5.56 5.56 0 0 0-7.55 2.25 5.62 5.62 0 0 0 2.24 7.6l-1.19 2.2Z"/>
    <path fill="#fff" d="m55.62 22.14-1.19-2.2a5.58 5.58 0 0 0-5.3-9.85c-5.1 2.77-8.12 11.22-8.15 11.3l-2.36-.83c.14-.38 3.36-9.44 9.32-12.69a8.02 8.02 0 0 1 10.94 3.27 8.1 8.1 0 0 1-3.26 11ZM63.54 52.84H16.5a1.25 1.25 0 0 1 0-2.51h47.03a1.25 1.25 0 0 1 0 2.51Z"/>
</svg>
