<svg width="202" height="59" viewBox="0 0 202 59" fill="none" xmlns="http://www.w3.org/2000/svg">
<g clip-path="url(#clip0_2403_2170)">
<path d="M59.883 23.8063C58.159 19.7092 55.3826 16.1318 51.8304 13.4305C48.2783 10.7293 44.0744 8.99858 39.6378 8.41089C35.2012 7.8232 30.6868 8.39906 26.5445 10.0811C22.4022 11.7631 18.7766 14.4925 16.0291 17.9973C13.2816 21.5021 11.5081 25.6599 10.8854 30.0564C10.2627 34.4529 10.8125 38.9344 12.48 43.0545C14.1475 47.1746 16.8744 50.7892 20.3891 53.5382C23.9038 56.2873 28.0835 58.0746 32.5116 58.7223C31.9316 56.6491 31.3416 54.3578 30.8215 51.9275C32.3344 52.9009 33.9267 53.747 35.5818 54.457C35.5818 54.457 35.7018 56.5995 35.8618 58.9901C37.6501 59.0207 39.4367 58.8644 41.192 58.5239C41.1467 58.2746 41.1467 58.0193 41.192 57.77C41.4821 55.9151 42.2821 52.5723 42.4421 50.4198C43.5954 49.3498 44.5739 48.1082 45.3422 46.7397L45.2822 47.1762C44.7322 51.4018 43.5822 55.9151 42.8821 57.1649C42.6555 57.5786 42.3766 57.962 42.0521 58.3057C45.6721 57.4633 49.064 55.8502 51.9928 53.5781C54.9217 51.3059 57.3172 48.4292 59.0135 45.1473C60.7097 41.8653 61.6661 38.2568 61.8162 34.5717C61.9664 30.8867 61.3067 27.2133 59.883 23.8063ZM58.4129 27.5657C57.9729 27.9923 57.0628 28.2799 56.9128 26.9904C56.7628 25.7009 56.7228 24.7983 56.7228 24.7983C56.7228 24.7983 54.7927 21.3959 54.0727 21.3563C53.3526 21.3166 48.2424 24.7983 46.8923 26.3159C45.7223 27.5955 45.4923 27.5062 45.4923 29.7579C45.4923 31.4541 45.7123 37.862 45.5923 42.7621L37.4419 44.9146C34.8801 45.6438 32.2749 46.2137 29.6415 46.6207L28.6414 40.8378H28.5014L25.9313 27.774C25.9313 27.774 22.1211 26.3457 20.721 25.9588C20.0636 25.6735 19.3377 25.5808 18.6289 25.6915C17.9201 25.8023 17.258 26.1118 16.7208 26.5837C16.1728 27.0597 15.7346 27.6471 15.4361 28.3061C15.1375 28.9651 14.9856 29.6802 14.9907 30.4027C15.2021 30.8637 15.3631 31.3459 15.4708 31.841C15.5208 32.3171 14.2707 32.2675 13.4707 32.2675C12.6706 32.2675 12.5506 30.8391 13.1807 29.1627C13.6722 27.8737 14.2814 26.632 15.0007 25.4529C15.5418 24.3997 16.2396 23.4333 17.0708 22.5863C17.0708 22.5863 17.2109 22.249 18.3209 22.3482C19.431 22.4474 25.6013 22.7747 25.6013 22.7747L25.6513 20.523C32.358 19.6045 39.122 19.1603 45.8923 19.1939C45.8923 19.7989 45.8923 20.404 45.8923 21.0091C48.4567 19.8483 51.2179 19.1754 54.0327 19.0252C54.1833 19.0214 54.3325 19.0548 54.4669 19.1223C54.6013 19.1899 54.7167 19.2894 54.8027 19.4121C55.1427 19.8386 57.2128 22.3879 57.4528 22.7549C58.1251 23.7078 58.7363 24.7017 59.2829 25.7307C59.0956 26.3822 58.8017 26.9988 58.4129 27.5558V27.5657Z" fill="#FDC305"/>
<path d="M56.4628 21.4951C56.9328 22.0903 57.3428 22.616 57.4628 22.7747C58.1351 23.7277 58.7463 24.7216 59.2929 25.7505C59.1027 26.3806 58.8123 26.9767 58.4329 27.5161C57.9929 27.9427 57.0828 28.2303 56.9328 26.9408C56.7828 25.6513 56.7228 24.7983 56.7228 24.7983C56.7228 24.7983 54.7927 21.3959 54.0727 21.3563C53.3526 21.3166 48.2424 24.7983 46.8923 26.3159C45.7223 27.5955 45.4923 27.5062 45.4923 29.7579C45.4923 31.2458 45.6623 36.3542 45.6223 40.8973C47.4323 41.0957 50.0925 41.5916 50.8925 42.7621C50.8925 42.7621 50.6025 35.6401 58.7029 39.3697C58.7029 39.3697 58.9829 29.6587 70.1635 32.1485C66.3627 27.7223 61.7035 24.0994 56.4628 21.4951Z" fill="#F06351"/>
<path d="M45.9323 19.1938C45.9729 13.6973 45.5043 8.2087 44.5322 2.79724C44.5322 2.79724 44.3822 1.50773 43.6622 2.55918C43.068 3.81617 42.6636 5.15308 42.4621 6.5269C38.1871 6.25483 33.896 6.36771 29.6415 6.86415C28.8214 4.13635 27.4214 2.89643 26.7513 3.22377C26.0813 3.55111 26.0013 6.4773 26.0013 6.4773L25.6713 20.523C32.3846 19.6036 39.1554 19.1594 45.9323 19.1938Z" fill="#F06351"/>
<path d="M45.3515 46.7397C45.4815 45.6784 45.5515 44.2698 45.5915 42.7125L37.4415 44.865C34.8809 45.611 32.2758 46.1974 29.6415 46.6207L30.7515 51.5804C30.7515 51.6895 30.7515 51.7986 30.8215 51.9077C32.3342 52.8811 33.9264 53.7272 35.5815 54.4371C38.0002 53.2903 40.3038 51.9186 42.4615 50.3404V50.4C43.6095 49.3352 44.5844 48.1005 45.3515 46.7397Z" fill="#E55645"/>
<path d="M32.0016 16.0891C31.9516 15.9899 33.0016 16.7636 33.4116 17.0017C33.8216 17.2397 34.0216 17.4183 34.0216 17.5869C34.0216 17.7555 33.7616 17.9242 33.4016 17.9242C33.0416 17.9242 32.4816 17.8051 32.4016 17.6663C32.3216 17.5274 33.0016 17.6663 33.3416 17.6663H33.6316C33.0159 17.2195 32.4671 16.6885 32.0016 16.0891Z" fill="black"/>
<path d="M39.5019 16.1982C39.5019 16.1982 38.5019 17.4679 38.4119 17.5274C38.3219 17.5869 38.2419 17.8647 38.6019 17.8151C39.0152 17.7539 39.4231 17.661 39.8219 17.5373C39.9319 17.4778 39.8919 17.3389 39.7019 17.3588C39.5119 17.3786 39.0219 17.4084 38.7019 17.4679L39.5519 16.2081C39.5519 16.2081 39.5819 16.0891 39.5019 16.1982Z" fill="black"/>
<path d="M36.3617 22.2589C36.8253 22.0563 37.2084 21.7077 37.4517 21.267C37.7317 20.6123 37.4517 20.3643 37.0117 20.2751C36.4064 20.1655 35.7817 20.2859 35.2617 20.6123C34.8717 20.9793 34.9217 21.3364 35.2617 21.6042C35.5995 21.867 35.969 22.0869 36.3617 22.2589Z" fill="black"/>
<path d="M36.0016 23.5087C35.8868 23.7337 35.7308 23.9355 35.5416 24.1039C35.2568 24.3312 34.9067 24.4631 34.5416 24.4808C33.991 24.5344 33.4405 24.3784 33.0016 24.0444C32.8 23.9274 32.6206 23.7764 32.4716 23.598C32.3716 23.49 32.2486 23.4053 32.1116 23.35C32.1116 23.35 32.8616 27.4269 34.6816 28.0815C36.5016 28.7362 36.8416 27.3277 36.8916 26.9507C36.9525 25.8218 36.6666 24.7011 36.0716 23.7369C36.0716 23.4393 36.0516 23.6377 36.0016 23.5087Z" fill="#F06351"/>
<path d="M34.3016 24.6396C33.8336 24.5728 33.3841 24.4127 32.9802 24.1689C32.5763 23.9251 32.2264 23.6027 31.9516 23.2211C31.927 23.1938 31.9134 23.1585 31.9134 23.1219C31.9134 23.0853 31.927 23.05 31.9516 23.0227C31.9646 23.0095 31.9802 22.999 31.9973 22.9919C32.0145 22.9847 32.033 22.981 32.0516 22.981C32.0702 22.981 32.0886 22.9847 32.1058 22.9919C32.123 22.999 32.1385 23.0095 32.1516 23.0227C32.399 23.3671 32.713 23.6593 33.0752 23.8823C33.4374 24.1054 33.8407 24.2549 34.2616 24.3221C34.5946 24.2973 34.9169 24.1945 35.202 24.022C35.4871 23.8496 35.7269 23.6125 35.9016 23.3302L36.0416 23.1417L36.1416 23.36C36.1416 23.36 36.5216 24.1138 37.1416 24.1535C37.7616 24.1932 38.2016 23.7369 38.7716 22.8739C38.7928 22.8423 38.8258 22.8204 38.8633 22.813C38.9008 22.8055 38.9398 22.8132 38.9716 22.8342C39.0034 22.8553 39.0255 22.888 39.033 22.9252C39.0405 22.9624 39.0328 23.0011 39.0116 23.0326C38.3449 24.0047 37.7149 24.4709 37.1216 24.4312C36.8922 24.4011 36.6726 24.3204 36.4788 24.1951C36.285 24.0698 36.122 23.9031 36.0016 23.7071C35.8059 23.9781 35.5518 24.2025 35.2577 24.3638C34.9636 24.5251 34.637 24.6193 34.3016 24.6396Z" fill="black"/>
<path d="M36.2616 37.9909C38.3327 37.9909 40.0116 36.3255 40.0116 34.2712C40.0116 32.2168 38.3327 30.5515 36.2616 30.5515C34.1905 30.5515 32.5116 32.2168 32.5116 34.2712C32.5116 36.3255 34.1905 37.9909 36.2616 37.9909Z" fill="#FDC305"/>
<path d="M41.2316 31.2458L38.1016 32.5452L39.2516 26.9607L31.7516 36.6419L34.8816 35.3425L33.7316 40.937L41.2316 31.2458ZM33.8416 35.0449L38.0016 29.6786L37.1916 33.6463L39.1916 32.8329L35.0016 38.2092L35.8116 34.2414L33.8416 35.0449Z" fill="#111111"/>
<path d="M32.4415 33.5868C33.0601 33.5868 33.5616 33.0894 33.5616 32.4758C33.5616 31.8622 33.0601 31.3648 32.4415 31.3648C31.823 31.3648 31.3215 31.8622 31.3215 32.4758C31.3215 33.0894 31.823 33.5868 32.4415 33.5868Z" fill="#111111"/>
<path d="M38.9619 37.614C39.3982 37.614 39.7519 37.2631 39.7519 36.8304C39.7519 36.3976 39.3982 36.0467 38.9619 36.0467C38.5256 36.0467 38.1719 36.3976 38.1719 36.8304C38.1719 37.2631 38.5256 37.614 38.9619 37.614Z" fill="#111111"/>
<path d="M39.922 35.4615C40.1153 35.4615 40.272 35.3061 40.272 35.1143C40.272 34.9226 40.1153 34.7672 39.922 34.7672C39.7287 34.7672 39.572 34.9226 39.572 35.1143C39.572 35.3061 39.7287 35.4615 39.922 35.4615Z" fill="#111111"/>
<path d="M45.8823 20.9892C44.077 22.6034 42.3769 24.3295 40.792 26.1572C39.2133 27.9717 37.4318 29.6023 35.4818 31.0177C35.2617 30.4919 33.8517 29.5099 33.8517 29.5099C33.8517 29.5099 30.7115 27.3773 28.6514 25.7009C27.5378 24.7809 26.4886 23.7867 25.5113 22.7251L23.5112 22.616C26.3983 26.7991 30.6281 29.8897 35.5118 31.3847C36.3718 31.2458 38.7919 29.5298 40.602 28.1311C42.7435 26.3247 44.7489 24.3654 46.6023 22.2688C47.1005 21.6816 47.4868 21.0094 47.7424 20.285C46.6023 20.6619 45.8823 20.9892 45.8823 20.9892Z" fill="#F06351"/>
<path d="M65.2227 3.47176L56.7627 12.8356L55.5427 10.8616L63.6927 0L65.2227 3.47176Z" fill="#FDC305"/>
<path d="M62.6531 17.1207L68.1931 13.0439L67.4131 9.33406L62.0131 14.1052L62.6531 17.1207Z" fill="#FDC305"/>
<path d="M59.923 48.9716L66.053 52.1259L69.063 49.8048L62.373 47.077L59.923 48.9716Z" fill="#FDC305"/>
<path d="M1.95 5.92183L5.02 2.58894L14.31 11.5163L13.09 13.7779L1.95 5.92183Z" fill="#FDC305"/>
<path d="M7.38 16.1486L2.68 13.0439L0.279999 16.8827L5.43 19.2633L7.38 16.1486Z" fill="#FDC305"/>
<path d="M13.9105 52.1259L9.36046 55.4489L12.1605 59L16.1805 55.0124L13.9105 52.1259Z" fill="#FDC305"/>
<path d="M25.9313 27.774C25.9313 27.774 22.1211 26.3457 20.721 25.9588C20.0636 25.6735 19.3377 25.5808 18.6289 25.6915C17.9201 25.8023 17.258 26.1118 16.7208 26.5837C16.1728 27.0597 15.7346 27.6471 15.4361 28.3061C15.1375 28.9651 14.9856 29.6802 14.9907 30.4027C15.2021 30.8637 15.3631 31.3459 15.4708 31.841C15.5208 32.3171 14.2707 32.2675 13.4707 32.2675C12.6706 32.2675 12.5506 30.8391 13.1807 29.1627C13.6722 27.8737 14.2814 26.632 15.0007 25.4529C9.55047 28.27 0 34.7771 0 34.7771C2.73182 34.6137 5.47292 34.6933 8.1904 35.0151C13.4407 35.5409 13.1907 39.6474 13.1907 39.6474C15.0373 39.1425 16.9192 38.7745 18.8209 38.5464C20.941 38.4075 21.091 40.6493 21.091 40.6493L21.6211 44.4781C22.4259 43.6145 23.3134 42.8305 24.2712 42.1372C25.5057 41.157 27.0776 40.6942 28.6514 40.8477L25.9313 27.774Z" fill="#F06351"/>
<path d="M85.6642 41.6611C84.634 40.1469 84.1414 38.3356 84.2642 36.5129V29.0735C84.1342 27.2374 84.6193 25.4102 85.6442 23.8758C86.5708 22.692 88.1542 22.1035 90.3942 22.1101C92.6342 22.1167 94.1508 22.6358 94.9442 23.6674C95.9115 24.9458 96.3835 26.5265 96.2742 28.1212V29.867H92.1342V27.9724C92.1286 27.4739 92.0851 26.9765 92.0042 26.4845C91.9541 26.1283 91.7892 25.7978 91.5342 25.5422C91.3767 25.4083 91.1939 25.3068 90.9964 25.2438C90.799 25.1808 90.5908 25.1574 90.3842 25.1752C90.0874 25.1312 89.7841 25.1791 89.5157 25.3122C89.2473 25.4453 89.0268 25.6572 88.8842 25.9191C88.6212 26.6157 88.5055 27.3585 88.5442 28.1014V37.5445C88.4985 38.2923 88.6322 39.0402 88.9342 39.7268C89.0784 39.9745 89.2925 40.175 89.5501 40.3036C89.8077 40.4323 90.0976 40.4835 90.3842 40.4509C90.6657 40.4904 90.9527 40.4407 91.2041 40.3089C91.4555 40.1771 91.6585 39.9699 91.7842 39.7169C92.0261 39.019 92.1313 38.2816 92.0942 37.5445V35.5607H96.2342V37.2767C96.356 38.895 95.9225 40.5066 95.0042 41.8495C94.1242 42.9406 92.6042 43.4763 90.4442 43.4763C88.2842 43.4763 86.5942 42.8811 85.6642 41.6611Z" fill="#111111"/>
<path d="M101.915 22.3978H106.655L110.655 43.2283H106.715L106.005 38.6258H102.685L101.885 43.1986H97.8848L101.915 22.3978ZM105.565 36.0071L104.305 27.6352L103.055 36.0071H105.565Z" fill="#111111"/>
<path d="M113.725 25.5323H110.485V22.3978H121.205V25.5323H118.005V43.1986H113.715L113.725 25.5323Z" fill="#111111"/>
<path d="M129.616 22.3978H137.746V24.5602H132.546V31.4343H136.766V33.4876H132.546V41.1155H137.796V43.1986H129.616V22.3978Z" fill="#444444"/>
<path d="M140.157 22.3978H142.157L148.157 36.2154V22.3978H150.597V43.2283H148.727L142.727 29.0239V43.1986H140.247L140.157 22.3978Z" fill="#444444"/>
<path d="M153.828 22.3978H161.948V24.5602H156.748V31.4343H161.008V33.4876H156.788V41.1155H162.008V43.1986H153.828V22.3978Z" fill="#444444"/>
<path d="M164.358 22.3978H168.578C170.241 22.265 171.897 22.7259 173.248 23.6972C174.248 24.5602 174.738 25.9687 174.738 27.9228C174.738 30.568 173.875 32.1848 172.148 32.7734L175.148 43.1986H172.308L169.558 33.438H167.288V43.1986H164.358V22.3978ZM168.358 31.3251C169.322 31.4176 170.285 31.1486 171.058 30.5713C171.372 30.2024 171.607 29.7736 171.748 29.3113C171.889 28.849 171.933 28.363 171.878 27.8832C171.898 27.2102 171.8 26.5389 171.588 25.8993C171.502 25.6635 171.369 25.4471 171.198 25.2631C171.026 25.0791 170.819 24.9312 170.588 24.828C169.939 24.5638 169.239 24.4453 168.538 24.4808H167.248V31.3648L168.358 31.3251Z" fill="#444444"/>
<path d="M178.679 41.6611C177.723 40.0607 177.28 38.21 177.409 36.3542V29.4107C177.374 28.0708 177.543 26.7333 177.909 25.443C178.198 24.473 178.811 23.6297 179.649 23.0525C180.66 22.4481 181.83 22.1579 183.009 22.2192C183.771 22.1473 184.54 22.2414 185.262 22.495C185.984 22.7486 186.642 23.1555 187.189 23.6873C188.148 25.0205 188.602 26.6472 188.469 28.2799V29.0536H185.719V28.4089C185.738 27.6377 185.677 26.8667 185.539 26.1076C185.448 25.6211 185.177 25.186 184.779 24.8875C184.26 24.5836 183.66 24.4419 183.059 24.4808C182.406 24.4254 181.756 24.6247 181.249 25.0363C180.834 25.4267 180.563 25.9435 180.479 26.5044C180.352 27.3215 180.295 28.1477 180.309 28.9743V36.7014C180.229 37.8756 180.432 39.0518 180.899 40.1335C181.17 40.4662 181.515 40.7329 181.906 40.9133C182.297 41.0937 182.724 41.183 183.156 41.1744C183.587 41.1658 184.011 41.0595 184.394 40.8636C184.778 40.6677 185.111 40.3874 185.369 40.0442C185.851 38.9001 186.059 37.661 185.979 36.4237V34.9556H183.319V32.9023H188.619V43.1986H186.809L186.519 40.808C186.29 41.6022 185.796 42.2962 185.119 42.777C184.442 43.2578 183.621 43.4973 182.789 43.4565C182.007 43.5249 181.22 43.3961 180.501 43.0823C179.783 42.7684 179.156 42.2795 178.679 41.6611Z" fill="#444444"/>
<path d="M194.699 35.8583L190.169 22.3978H192.889L196.099 32.4361L199.259 22.3978H202.009L197.509 35.8583V43.1986H194.709L194.699 35.8583Z" fill="#444444"/>
</g>
<defs>
<clipPath id="clip0_2403_2170">
<rect width="202" height="59" fill="white"/>
</clipPath>
</defs>
</svg>
